<?xml version="1.0" encoding="UTF-8"?>
<svg xmlns="http://www.w3.org/2000/svg" xmlns:xlink="http://www.w3.org/1999/xlink" width="640px" height="480px" viewBox="0 0 640 480" version="1.1">
<g id="surface1">
<rect x="0" y="0" width="640" height="480" style="fill:rgb(0%,0%,54.509807%);fill-opacity:1;stroke:none;"/>
<path style=" stroke:none;fill-rule:nonzero;fill:rgb(100%,100%,100%);fill-opacity:1;" d="M 37.5 0 L 159.5 90.5 L 281 0 L 320 0 L 320 31 L 200 120.5 L 320 209.5 L 320 240 L 280 240 L 160 150.5 L 40.5 240 L 0 240 L 0 210 L 119.5 121 L 0 32 L 0 0 Z M 37.5 0 "/>
<path style=" stroke:none;fill-rule:nonzero;fill:rgb(100%,0%,0%);fill-opacity:1;" d="M 212 140.5 L 320 220 L 320 240 L 184.5 140.5 Z M 120 150.5 L 123 168 L 27 240 L 0 240 Z M 320 0 L 320 1.5 L 195.5 95.5 L 196.5 73.5 L 295 0 Z M 0 0 L 119.5 88 L 89.5 88 L 0 21 Z M 0 0 "/>
<path style=" stroke:none;fill-rule:nonzero;fill:rgb(100%,100%,100%);fill-opacity:1;" d="M 120.5 0 L 120.5 240 L 200.5 240 L 200.5 0 Z M 0 80 L 0 160 L 320 160 L 320 80 Z M 0 80 "/>
<path style=" stroke:none;fill-rule:nonzero;fill:rgb(100%,0%,0%);fill-opacity:1;" d="M 0 96.5 L 0 144.5 L 320 144.5 L 320 96.5 Z M 136.5 0 L 136.5 240 L 184.5 240 L 184.5 0 Z M 136.5 0 "/>
<path style=" stroke:none;fill-rule:nonzero;fill:rgb(100%,100%,100%);fill-opacity:1;" d="M 527 396.699219 L 506.5 399.300781 L 508.699219 419.800781 L 493.898438 405.398438 L 479.199219 419.898438 L 481.199219 399.398438 L 460.699219 397 L 478 385.800781 L 467.101562 368.300781 L 486.699219 374.800781 L 493.601562 355.300781 L 500.699219 374.699219 L 520.199219 368 L 509.5 385.601562 Z M 523.300781 279.5 L 526 266.5 L 516.199219 257.5 L 529.398438 256 L 534.898438 243.898438 L 540.398438 256 L 553.601562 257.5 L 543.800781 266.5 L 546.5 279.5 L 534.898438 272.898438 Z M 419.199219 219.5 L 398.898438 221.699219 L 400.699219 242 L 386.300781 227.5 L 371.5 241.601562 L 373.898438 221.300781 L 353.699219 218.601562 L 371 207.800781 L 360.5 190.300781 L 379.800781 197.101562 L 387 178 L 393.699219 197.300781 L 413.101562 191 L 402.199219 208.300781 L 419.300781 219.5 Z M 623 186.699219 L 602.101562 189.398438 L 604.398438 210.300781 L 589.300781 195.601562 L 574.300781 210.398438 L 576.398438 189.398438 L 555.5 187 L 573.199219 175.5 L 562.101562 157.601562 L 582.101562 164.300781 L 589.101562 144.5 L 596.300781 164.300781 L 616.199219 157.398438 L 605.199219 175.398438 Z M 526.898438 103.199219 L 506.199219 105.5 L 508.101562 126.300781 L 493.398438 111.5 L 478.300781 125.898438 L 480.699219 105.199219 L 460 102.398438 L 477.699219 91.398438 L 467 73.5 L 486.699219 80.398438 L 494 60.898438 L 500.800781 80.601562 L 520.601562 74.101562 L 509.5 91.699219 Z M 234 385.699219 L 188.199219 391.101562 L 192.800781 437 L 160 404.601562 L 127 436.800781 L 131.898438 390.898438 L 86.101562 385.101562 L 125 360.300781 L 101 320.898438 L 144.601562 335.898438 L 160.398438 292.5 L 175.898438 336 L 219.601562 321.300781 L 195.300781 360.5 L 234.101562 385.601562 Z M 234 385.699219 "/>
</g>
</svg>
