<?xml version="1.0" encoding="UTF-8"?>
<svg xmlns="http://www.w3.org/2000/svg" xmlns:xlink="http://www.w3.org/1999/xlink" width="640px" height="480px" viewBox="0 0 640 480" version="1.1">
<g id="surface1">
<rect x="0" y="0" width="640" height="480" style="fill:rgb(13.333334%,61.960787%,27.058825%);fill-opacity:1;stroke:none;"/>
<path style=" stroke:none;fill-rule:evenodd;fill:rgb(97.254902%,89.803922%,3.529412%);fill-opacity:1;" d="M 321.398438 436 L 622.898438 240.300781 L 319.601562 44 L 17.101562 240.699219 Z M 321.398438 436 "/>
<path style=" stroke:none;fill-rule:evenodd;fill:rgb(16.862746%,28.627452%,63.921571%);fill-opacity:1;" d="M 452.800781 240 C 452.800781 310.300781 395.699219 367.300781 325.199219 367.300781 C 254.851562 367.191406 197.90625 310.082031 198 239.734375 C 198.09375 169.386719 255.183594 112.425781 325.535156 112.5 C 395.882812 112.574219 452.855469 169.652344 452.800781 240 "/>
<path style=" stroke:none;fill-rule:evenodd;fill:rgb(100%,100%,93.725491%);fill-opacity:1;" d="M 283.300781 316.300781 L 279.300781 314 L 275.300781 316 L 276.199219 311.5 L 273 308.101562 L 277.5 307.601562 L 279.699219 303.601562 L 281.601562 307.800781 L 286 308.601562 L 282.699219 311.601562 M 368.699219 337.898438 L 364.800781 335.601562 L 360.800781 337.601562 L 361.601562 333.101562 L 358.5 329.800781 L 363 329.300781 L 365.101562 325.199219 L 367.101562 329.398438 L 371.5 330.199219 L 368.101562 333.300781 M 331.898438 303.300781 L 328.5 301.300781 L 325 303.101562 L 325.800781 299.199219 L 323 296.300781 L 327 295.898438 L 328.800781 292.300781 L 330.398438 296 L 334.300781 296.699219 L 331.300781 299.398438 M 418.300781 290.898438 L 414.898438 288.898438 L 411.398438 290.699219 L 412.199219 286.800781 L 409.5 284 L 413.398438 283.601562 L 415.199219 280.101562 L 416.800781 283.699219 L 420.601562 284.398438 L 417.699219 287 M 330.398438 265 L 326.398438 262.800781 L 322.398438 264.800781 L 323.199219 260.199219 L 320.101562 256.898438 L 324.601562 256.398438 L 326.699219 252.300781 L 328.699219 256.5 L 333.101562 257.300781 L 329.699219 260.5 M 225.101562 225.5 L 221.101562 223.300781 L 217.101562 225.300781 L 218.101562 220.699219 L 214.800781 217.398438 L 219.398438 216.898438 L 221.398438 212.800781 L 223.398438 217 L 227.800781 217.800781 L 224.5 220.898438 M 237.800781 278.101562 L 233.800781 275.800781 L 229.800781 277.800781 L 230.699219 273.300781 L 227.5 270 L 232 269.398438 L 234.101562 265.398438 L 236.101562 269.601562 L 240.5 270.398438 L 237.199219 273.5 M 369.199219 206.199219 L 365.601562 204.199219 L 362 206 L 362.800781 202 L 360 199 L 364 198.5 L 365.898438 194.898438 L 367.601562 198.699219 L 371.601562 199.398438 L 368.601562 202.101562 M 361.898438 240.398438 L 359.199219 238.800781 L 356.300781 240.199219 L 356.898438 237 L 354.699219 234.699219 L 357.898438 234.300781 L 359.398438 231.5 L 360.699219 234.5 L 363.699219 235 L 361.5 237.199219 M 219.300781 287.601562 L 216.601562 286.101562 L 213.898438 287.398438 L 214.5 284.398438 L 212.398438 282.199219 L 215.398438 281.800781 L 216.800781 279.101562 L 218.101562 281.898438 L 221.101562 282.5 L 218.800781 284.5 M 419 299.800781 L 416.800781 298.699219 L 414.601562 299.699219 L 415.101562 297.398438 L 413.398438 295.800781 L 415.800781 295.5 L 417 293.5 L 418 295.5 L 420.5 296 L 418.601562 297.5 "/>
<path style=" stroke:none;fill-rule:evenodd;fill:rgb(100%,100%,93.725491%);fill-opacity:1;" d="M 219.300781 287.601562 L 216.601562 286.101562 L 213.898438 287.398438 L 214.5 284.398438 L 212.398438 282.199219 L 215.398438 281.800781 L 216.800781 279.101562 L 218.101562 281.898438 L 221.101562 282.5 L 218.800781 284.5 "/>
<path style=" stroke:none;fill-rule:evenodd;fill:rgb(100%,100%,93.725491%);fill-opacity:1;" d="M 219.300781 287.601562 L 216.601562 286.101562 L 213.898438 287.398438 L 214.5 284.398438 L 212.398438 282.199219 L 215.398438 281.800781 L 216.800781 279.101562 L 218.101562 281.898438 L 221.101562 282.5 L 218.800781 284.5 M 261.101562 287.5 L 258.5 286.101562 L 255.800781 287.398438 L 256.398438 284.398438 L 254.300781 282.199219 L 257.300781 281.800781 L 258.699219 279.101562 L 260 281.898438 L 263 282.398438 L 260.699219 284.5 M 255.898438 301.5 L 253.300781 300 L 250.601562 301.398438 L 251.199219 298.398438 L 249.101562 296.101562 L 252.101562 295.699219 L 253.5 293 L 254.800781 295.800781 L 257.800781 296.398438 L 255.5 298.398438 M 342.898438 276.199219 L 340.300781 274.601562 L 337.5 276 L 338.101562 273 L 336.101562 270.699219 L 339.101562 270.398438 L 340.5 267.699219 L 341.699219 270.5 L 344.699219 271 L 342.5 273.101562 M 317.398438 276.101562 L 314.699219 274.601562 L 312 276 L 312.601562 273 L 310.601562 270.699219 L 313.601562 270.398438 L 315 267.601562 L 316.199219 270.5 L 319.199219 271 L 317 273.101562 M 248.199219 267.300781 L 246.5 266.300781 L 244.800781 267.101562 L 245.199219 265.199219 L 243.898438 263.800781 L 245.800781 263.601562 L 246.601562 261.898438 L 247.398438 263.699219 L 249.300781 264 L 247.898438 265.300781 M 415.699219 310.699219 L 413.101562 309.199219 L 410.398438 310.601562 L 411 307.601562 L 408.898438 305.300781 L 411.898438 304.898438 L 413.300781 302.199219 L 414.601562 305 L 417.601562 305.601562 L 415.300781 307.601562 M 394.5 313.601562 L 392.300781 312.199219 L 390 313.398438 L 390.5 310.800781 L 388.800781 309 L 391.300781 308.699219 L 392.5 306.398438 L 393.5 308.800781 L 396 309.199219 L 394.101562 311 M 404.5 313.300781 L 402.5 312.101562 L 400.398438 313.101562 L 400.800781 310.800781 L 399.199219 309.101562 L 401.5 308.800781 L 402.601562 306.800781 L 403.601562 308.800781 L 405.898438 309.300781 L 404.199219 310.898438 M 433.300781 288.101562 L 431.300781 287.101562 L 429.300781 288.101562 L 429.800781 285.800781 L 428.199219 284.101562 L 430.5 283.800781 L 431.5 281.800781 L 432.5 283.898438 L 434.601562 284.300781 L 433 285.898438 M 394.199219 327.699219 L 391.699219 326.300781 L 389 327.5 L 389.601562 324.699219 L 387.601562 322.699219 L 390.601562 322.398438 L 391.898438 319.898438 L 393.101562 322.5 L 396.101562 323 L 393.800781 324.898438 M 394.398438 339.101562 L 392 337.699219 L 389.601562 339 L 390.199219 336.199219 L 388.300781 334.199219 L 391 333.800781 L 392.199219 331.300781 L 393.300781 333.898438 L 396 334.398438 L 394 336.398438 M 375 313.300781 L 373.101562 312.101562 L 371.101562 313.101562 L 371.5 310.898438 L 370 309.199219 L 372.199219 309 L 373.199219 307 L 374.199219 309 L 376.398438 309.398438 L 374.800781 311 M 357 313.300781 L 355 312.101562 L 353 313.101562 L 353.5 310.898438 L 351.898438 309.199219 L 354.199219 309 L 355.199219 307 L 356.199219 309 L 358.300781 309.398438 L 356.699219 311 M 326.300781 286.398438 L 324.300781 285.300781 L 322.300781 286.300781 L 322.800781 284 L 321.199219 282.398438 L 323.398438 282.101562 L 324.398438 280.101562 L 325.398438 282.101562 L 327.601562 282.601562 L 326 284.101562 M 329.699219 341.101562 L 328.101562 340.199219 L 326.300781 341.101562 L 326.699219 339.101562 L 325.398438 337.699219 L 327.300781 337.5 L 328.199219 335.800781 L 329 337.601562 L 330.898438 337.898438 L 329.5 339.199219 M 283.300781 252.601562 L 279.300781 250.300781 L 275.300781 252.300781 L 276.199219 247.800781 L 273 244.5 L 277.5 243.898438 L 279.699219 239.898438 L 281.601562 244.101562 L 286 244.898438 L 282.699219 248 "/>
<path style=" stroke:none;fill-rule:evenodd;fill:rgb(100%,100%,100%);fill-opacity:1;" d="M 444.398438 285.800781 C 446.875 279.371094 448.816406 272.75 450.199219 266 C 382.398438 206.5 306.898438 176 211.5 182.300781 C 208.042969 188.996094 205.199219 195.992188 203 203.199219 C 316 192.398438 399 242.398438 444.398438 285.800781 "/>
<path style=" stroke:none;fill-rule:nonzero;fill:rgb(18.82353%,61.960787%,22.745098%);fill-opacity:1;" d="M 414 252.398438 L 416.300781 253.699219 C 415.921875 254.367188 415.816406 255.15625 416 255.898438 C 416.234375 256.625 416.734375 257.230469 417.398438 257.601562 C 418.066406 258.132812 418.734375 258.367188 419.398438 258.300781 C 420 258.300781 420.433594 258.066406 420.699219 257.601562 L 420.898438 256.699219 L 420.398438 255.699219 L 418.898438 253.898438 C 418.085938 253.046875 417.472656 252.019531 417.101562 250.898438 C 416.703125 249.152344 417.523438 247.351562 419.101562 246.5 C 419.832031 246.207031 420.628906 246.140625 421.398438 246.300781 C 422.339844 246.515625 423.226562 246.925781 424 247.5 C 425.398438 248.5 426.265625 249.566406 426.601562 250.699219 C 426.894531 251.835938 426.671875 253.042969 426 254 L 423.601562 252.5 C 423.933594 251.832031 424 251.265625 423.800781 250.800781 C 423.667969 250.265625 423.265625 249.800781 422.601562 249.398438 C 422.09375 248.976562 421.460938 248.730469 420.800781 248.699219 C 420.429688 248.6875 420.085938 248.878906 419.898438 249.199219 C 419.699219 249.464844 419.667969 249.800781 419.800781 250.199219 C 419.933594 250.734375 420.464844 251.464844 421.398438 252.398438 C 422.332031 253.332031 423 254.167969 423.398438 254.898438 C 424.105469 256.242188 423.988281 257.871094 423.101562 259.101562 C 422.636719 259.785156 421.972656 260.308594 421.199219 260.601562 C 420.449219 260.945312 419.613281 261.050781 418.800781 260.898438 C 417.933594 260.699219 417 260.265625 416 259.601562 C 414.535156 258.601562 413.632812 257.5 413.300781 256.300781 C 412.925781 254.941406 413.144531 253.488281 413.898438 252.300781 Z M 402.398438 244.800781 L 404.898438 246.101562 C 404.554688 246.78125 404.484375 247.566406 404.699219 248.300781 C 404.957031 248.988281 405.453125 249.554688 406.101562 249.898438 C 406.832031 250.433594 407.5 250.632812 408.101562 250.5 C 408.699219 250.5 409.132812 250.234375 409.398438 249.699219 L 409.601562 248.898438 C 409.601562 248.566406 409.433594 248.234375 409.101562 247.898438 L 407.5 246.101562 C 406.367188 245.035156 405.699219 244.101562 405.5 243.300781 C 405.207031 242.253906 405.351562 241.136719 405.898438 240.199219 C 406.296875 239.597656 406.851562 239.113281 407.5 238.800781 C 408.191406 238.496094 408.953125 238.390625 409.699219 238.5 C 410.625 238.65625 411.507812 238.996094 412.300781 239.5 C 413.832031 240.5 414.734375 241.535156 415 242.601562 C 415.382812 243.734375 415.234375 244.984375 414.601562 246 L 412.101562 244.601562 C 412.433594 243.933594 412.5 243.367188 412.300781 242.898438 C 412.035156 242.234375 411.601562 241.765625 411 241.5 C 410.453125 241.089844 409.78125 240.878906 409.101562 240.898438 C 408.765625 240.921875 408.464844 241.109375 408.300781 241.398438 C 408.101562 241.667969 408.066406 242 408.199219 242.398438 C 408.398438 242.933594 408.964844 243.667969 409.898438 244.601562 C 410.898438 245.601562 411.566406 246.398438 411.898438 247 C 412.695312 248.289062 412.695312 249.914062 411.898438 251.199219 C 411.480469 251.90625 410.851562 252.464844 410.101562 252.800781 C 409.351562 253.144531 408.511719 253.25 407.699219 253.101562 C 406.671875 252.925781 405.6875 252.550781 404.800781 252 C 403.507812 251.3125 402.511719 250.171875 402 248.800781 C 401.566406 247.46875 401.714844 246.019531 402.398438 244.800781 M 388.199219 241 L 395.5 229 L 404.300781 234.5 L 403.101562 236.5 L 396.699219 232.5 L 395.101562 235.199219 L 401.101562 238.898438 L 399.800781 240.898438 L 393.800781 237.199219 L 391.800781 240.5 L 398.5 244.5 L 397.300781 246.5 Z M 367.5 224 L 368.601562 222 L 374 224.699219 L 371.5 229.699219 C 370.699219 229.898438 369.699219 229.964844 368.5 229.898438 C 367.347656 229.78125 366.226562 229.441406 365.199219 228.898438 C 363.996094 228.300781 362.964844 227.40625 362.199219 226.300781 C 361.511719 225.265625 361.164062 224.042969 361.199219 222.800781 C 361.265625 221.507812 361.605469 220.246094 362.199219 219.101562 C 362.800781 217.898438 363.695312 216.867188 364.800781 216.101562 C 365.851562 215.355469 367.113281 214.972656 368.398438 215 C 369.332031 215 370.398438 215.332031 371.601562 216 C 373.199219 216.734375 374.234375 217.667969 374.699219 218.800781 C 375.21875 219.890625 375.328125 221.136719 375 222.300781 L 372.300781 221.5 C 372.464844 220.832031 372.394531 220.125 372.101562 219.5 C 371.832031 218.898438 371.300781 218.433594 370.5 218.101562 C 369.550781 217.585938 368.429688 217.476562 367.398438 217.800781 C 366.398438 218.132812 365.535156 219 364.800781 220.398438 C 364.066406 221.800781 363.832031 223.066406 364.101562 224.199219 C 364.414062 225.238281 365.136719 226.105469 366.101562 226.601562 C 366.632812 226.933594 367.199219 227.101562 367.800781 227.101562 L 369.601562 227.101562 L 370.398438 225.5 Z M 277.300781 201.699219 L 279.300781 187.699219 L 283.5 188.398438 L 284.601562 198.199219 L 288.5 189.199219 L 292.699219 189.800781 L 290.699219 203.601562 L 288 203.199219 L 289.699219 192.300781 L 285.300781 202.800781 L 282.601562 202.398438 L 281.5 191.101562 L 279.898438 202.101562 Z M 263.199219 200 L 264.5 186 L 274.800781 187 L 274.601562 189.398438 L 267.101562 188.699219 L 266.800781 191.699219 L 273.800781 192.398438 L 273.5 194.800781 L 266.5 194.101562 L 266.199219 197.898438 L 274 198.601562 L 273.800781 201 Z M 263.199219 200 "/>
<path style=" stroke:none;fill-rule:nonzero;fill:rgb(18.82353%,61.960787%,22.745098%);fill-opacity:1;" d="M 216.5 191.300781 C 216.5 189.832031 216.734375 188.632812 217.199219 187.699219 C 217.554688 186.992188 218.027344 186.347656 218.601562 185.800781 C 219.105469 185.273438 219.71875 184.863281 220.398438 184.601562 C 221.398438 184.265625 222.398438 184.101562 223.398438 184.101562 C 225.464844 184.167969 227.132812 184.832031 228.398438 186.101562 C 229.691406 187.621094 230.277344 189.621094 230 191.601562 C 230 193.800781 229.332031 195.566406 228 196.898438 C 226.621094 198.097656 224.824219 198.707031 223 198.601562 C 221.203125 198.574219 219.484375 197.859375 218.199219 196.601562 C 216.925781 195.144531 216.308594 193.226562 216.5 191.300781 "/>
<path style=" stroke:none;fill-rule:nonzero;fill:rgb(96.862745%,100%,100%);fill-opacity:1;" d="M 219.398438 191.300781 C 219.398438 192.832031 219.734375 194.035156 220.398438 194.898438 C 221.066406 195.765625 222 196.199219 223.199219 196.199219 C 224.242188 196.210938 225.246094 195.816406 226 195.101562 C 226.667969 194.300781 227.035156 193.066406 227.101562 191.398438 C 227.167969 189.800781 226.832031 188.601562 226.101562 187.800781 C 225.402344 187.03125 224.433594 186.566406 223.398438 186.5 C 222.34375 186.515625 221.339844 186.945312 220.601562 187.699219 C 219.867188 188.5 219.464844 189.699219 219.398438 191.300781 "/>
<path style=" stroke:none;fill-rule:nonzero;fill:rgb(18.82353%,61.960787%,22.745098%);fill-opacity:1;" d="M 233 198.5 L 233.199219 184.5 L 239.199219 184.5 C 240.667969 184.5 241.734375 184.667969 242.398438 185 C 243.066406 185.199219 243.601562 185.632812 244 186.300781 C 244.601562 187.300781 244.601562 187.699219 244.601562 188.601562 C 244.589844 189.558594 244.234375 190.480469 243.601562 191.199219 C 242.839844 191.863281 241.898438 192.28125 240.898438 192.398438 L 242.398438 193.601562 C 242.800781 194 243.300781 194.765625 243.898438 195.898438 L 245.601562 198.699219 L 242.199219 198.699219 L 240.199219 195.5 L 238.800781 193.5 L 237.898438 192.898438 L 236.5 192.699219 L 235.898438 192.699219 L 235.898438 198.5 Z M 233 198.5 "/>
<path style=" stroke:none;fill-rule:nonzero;fill:rgb(100%,100%,100%);fill-opacity:1;" d="M 236 190.5 L 238 190.5 C 239.398438 190.5 240.265625 190.433594 240.601562 190.300781 C 240.933594 190.234375 241.199219 190.066406 241.398438 189.800781 C 241.667969 189.398438 241.765625 189.066406 241.699219 188.800781 C 241.699219 188.199219 241.566406 187.800781 241.300781 187.601562 C 241.101562 187.332031 240.765625 187.132812 240.300781 187 L 238.300781 187 L 236 186.898438 Z M 236 190.5 "/>
<path style=" stroke:none;fill-rule:nonzero;fill:rgb(18.82353%,61.960787%,22.745098%);fill-opacity:1;" d="M 249 185.199219 L 254.199219 185.5 C 255.332031 185.5 256.199219 185.601562 256.800781 185.800781 C 257.570312 186.09375 258.257812 186.574219 258.800781 187.199219 C 259.375 187.898438 259.785156 188.71875 260 189.601562 C 260.265625 190.535156 260.367188 191.632812 260.300781 192.898438 C 260.304688 193.921875 260.136719 194.9375 259.800781 195.898438 C 259.398438 196.898438 258.832031 197.699219 258.101562 198.300781 C 257.515625 198.78125 256.832031 199.121094 256.101562 199.300781 C 255.433594 199.5 254.601562 199.566406 253.601562 199.5 L 248.300781 199.199219 Z M 249 185.199219 "/>
<path style=" stroke:none;fill-rule:nonzero;fill:rgb(100%,100%,100%);fill-opacity:1;" d="M 251.699219 187.699219 L 251.199219 197 L 255 197 C 255.535156 197 255.933594 196.832031 256.199219 196.5 C 256.535156 196.234375 256.800781 195.800781 257 195.199219 C 257.199219 194.601562 257.332031 193.734375 257.398438 192.601562 L 257.300781 190.101562 C 257.167969 189.570312 256.890625 189.085938 256.5 188.699219 L 255.300781 188 L 253 187.699219 Z M 251.699219 187.699219 "/>
<path style=" stroke:none;fill-rule:nonzero;fill:rgb(18.82353%,61.960787%,22.745098%);fill-opacity:1;" d="M 317.601562 210.199219 L 320.898438 196.601562 L 325.300781 197.601562 L 328.5 198.601562 C 329.234375 199 329.765625 199.632812 330.101562 200.5 C 330.433594 201.367188 330.5 202.300781 330.300781 203.300781 C 330.101562 204.101562 329.765625 204.765625 329.300781 205.300781 C 328.550781 206.179688 327.457031 206.6875 326.300781 206.699219 C 325.632812 206.699219 324.632812 206.535156 323.300781 206.199219 L 321.601562 205.699219 L 320.398438 210.898438 Z M 317.601562 210.199219 "/>
<path style=" stroke:none;fill-rule:nonzero;fill:rgb(100%,100%,100%);fill-opacity:1;" d="M 323 199.601562 L 322.199219 203.398438 L 323.699219 203.800781 C 324.765625 204.066406 325.5 204.167969 325.898438 204.101562 C 326.683594 203.964844 327.3125 203.375 327.5 202.601562 C 327.5 202.132812 327.433594 201.699219 327.300781 201.300781 C 327.082031 200.894531 326.726562 200.574219 326.300781 200.398438 L 324.398438 199.898438 L 323.101562 199.601562 Z M 323 199.601562 "/>
<path style=" stroke:none;fill-rule:nonzero;fill:rgb(18.82353%,61.960787%,22.745098%);fill-opacity:1;" d="M 330.601562 214.101562 L 335.300781 200.898438 L 340.800781 202.898438 C 342.265625 203.433594 343.265625 203.898438 343.800781 204.300781 C 344.332031 204.765625 344.667969 205.367188 344.800781 206.101562 C 345 207.199219 345 207.601562 344.800781 208.398438 C 344.398438 209.398438 343.800781 210.132812 343 210.601562 C 342.199219 211 341.199219 211.101562 340 210.898438 C 340.398438 211.367188 340.734375 211.898438 341 212.5 L 341.800781 215.199219 L 342.398438 218.300781 L 339.300781 217.199219 L 338.300781 213.601562 L 337.601562 211.199219 L 337 210.398438 C 336.800781 210.132812 336.367188 209.898438 335.699219 209.699219 L 335.199219 209.5 L 333.199219 215.101562 Z M 330.601562 214.101562 "/>
<path style=" stroke:none;fill-rule:nonzero;fill:rgb(100%,100%,100%);fill-opacity:1;" d="M 336 207.398438 L 337.898438 208.101562 C 339.234375 208.566406 340.066406 208.800781 340.398438 208.800781 C 340.734375 208.800781 341.035156 208.699219 341.300781 208.5 C 341.632812 208.300781 341.832031 208 341.898438 207.601562 C 342.101562 207.199219 342.101562 206.800781 341.898438 206.398438 L 341.101562 205.5 L 337.101562 204.101562 L 335.898438 207.398438 Z M 336 207.398438 "/>
<path style=" stroke:none;fill-rule:nonzero;fill:rgb(18.82353%,61.960787%,22.745098%);fill-opacity:1;" d="M 347 213.601562 C 347.34375 212.429688 347.921875 211.339844 348.699219 210.398438 L 350.5 208.898438 L 352.5 208.199219 C 353.5 208.132812 354.535156 208.265625 355.601562 208.601562 C 357.382812 209.101562 358.890625 210.289062 359.800781 211.898438 C 360.601562 213.5 360.667969 215.398438 360 217.601562 C 359.546875 219.511719 358.3125 221.144531 356.601562 222.101562 C 355.066406 222.964844 353.332031 223.101562 351.398438 222.5 C 349.617188 222 348.109375 220.8125 347.199219 219.199219 C 346.355469 217.441406 346.285156 215.414062 347 213.601562 "/>
<path style=" stroke:none;fill-rule:nonzero;fill:rgb(100%,100%,100%);fill-opacity:1;" d="M 349.800781 214.398438 C 349.332031 215.933594 349.332031 217.199219 349.800781 218.199219 C 350.5 219.699219 351 219.800781 352.101562 220.199219 C 353.101562 220.535156 354.101562 220.398438 355.101562 219.800781 C 356.035156 219.265625 356.734375 218.199219 357.199219 216.601562 C 357.734375 215.132812 357.734375 213.898438 357.199219 212.898438 C 356.75 211.976562 355.964844 211.257812 355 210.898438 C 354 210.605469 352.921875 210.710938 352 211.199219 C 351 211.734375 350.265625 212.800781 349.800781 214.398438 "/>
<path style=" stroke:none;fill-rule:nonzero;fill:rgb(18.82353%,61.960787%,22.745098%);fill-opacity:1;" d="M 374.300781 233.101562 L 380.699219 220.699219 L 386 223.398438 C 387 223.878906 387.910156 224.519531 388.699219 225.300781 C 389.234375 225.765625 389.5 226.398438 389.5 227.199219 C 389.5 228.398438 389.5 228.699219 389.101562 229.398438 C 388.699219 230.289062 387.988281 231 387.101562 231.398438 C 386.101562 231.667969 385.066406 231.601562 384 231.199219 C 384.398438 231.867188 384.667969 232.433594 384.800781 232.898438 C 385 233.5 385.132812 234.433594 385.199219 235.699219 L 385.398438 238.898438 L 382.398438 237.398438 L 382 233.699219 L 381.699219 231.199219 L 381.199219 230.199219 L 380 229.5 L 379.5 229.199219 L 376.800781 234.398438 Z M 374.300781 233.101562 "/>
<path style=" stroke:none;fill-rule:nonzero;fill:rgb(100%,100%,100%);fill-opacity:1;" d="M 380.5 227.199219 L 382.398438 228.199219 C 383.601562 228.867188 384.367188 229.199219 384.699219 229.199219 C 385.035156 229.199219 385.367188 229.132812 385.699219 229 C 385.964844 228.867188 386.199219 228.601562 386.398438 228.199219 C 386.601562 227.800781 386.667969 227.398438 386.601562 227 L 385.898438 226 L 384.101562 225 L 382.101562 224 Z M 380.5 227.199219 "/>
<path style=" stroke:none;fill-rule:nonzero;fill:rgb(18.82353%,61.960787%,22.745098%);fill-opacity:1;" d="M 426.101562 258.699219 C 426.75 257.671875 427.601562 256.789062 428.601562 256.101562 C 429.277344 255.675781 430.019531 255.371094 430.800781 255.199219 C 431.527344 255.0625 432.273438 255.0625 433 255.199219 C 434 255.398438 434.933594 255.800781 435.800781 256.398438 C 437.339844 257.414062 438.417969 258.996094 438.800781 260.800781 C 439.066406 262.535156 438.601562 264.367188 437.398438 266.300781 C 436.421875 267.976562 434.792969 269.171875 432.898438 269.601562 C 431.089844 269.929688 429.222656 269.535156 427.699219 268.5 C 426.160156 267.484375 425.082031 265.90625 424.699219 264.101562 C 424.433594 262.300781 424.898438 260.5 426.101562 258.699219 "/>
<path style=" stroke:none;fill-rule:nonzero;fill:rgb(100%,100%,100%);fill-opacity:1;" d="M 428.601562 260.300781 C 427.667969 261.632812 427.300781 262.832031 427.5 263.898438 C 427.691406 264.90625 428.265625 265.800781 429.101562 266.398438 C 430.101562 267.066406 431.101562 267.265625 432.101562 267 C 433.101562 266.734375 434.066406 265.933594 435 264.601562 C 435.933594 263.199219 436.300781 262 436.101562 261 C 435.898438 260 435.367188 259.132812 434.5 258.398438 C 433.101562 257.300781 432.5 257.601562 431.5 257.898438 C 430.5 258.101562 429.5 258.898438 428.5 260.300781 Z M 428.601562 260.300781 "/>
<path style=" stroke:none;fill-rule:nonzero;fill:rgb(18.82353%,61.960787%,22.745098%);fill-opacity:1;" d="M 301.800781 204.5 L 304.101562 194.699219 L 311.300781 196.398438 L 311 198 L 305.699219 196.800781 L 305.199219 199 L 310.101562 200.101562 L 309.699219 201.800781 L 304.800781 200.601562 L 304.199219 203.300781 L 309.699219 204.601562 L 309.300781 206.199219 Z M 301.800781 204.5 "/>
</g>
</svg>
