<?xml version="1.0" encoding="UTF-8"?>
<svg xmlns="http://www.w3.org/2000/svg" xmlns:xlink="http://www.w3.org/1999/xlink" width="640px" height="480px" viewBox="0 0 640 480" version="1.1">
<g id="surface1">
<path style=" stroke:none;fill-rule:nonzero;fill:rgb(100%,100%,100%);fill-opacity:1;" d="M 150.101562 0 L 489.800781 0 L 489.800781 480 L 150 480 Z M 150.101562 0 "/>
<path style=" stroke:none;fill-rule:nonzero;fill:rgb(83.529413%,16.862746%,11.764706%);fill-opacity:1;" d="M -19.699219 0 L 150.101562 0 L 150.101562 480 L -19.699219 480 Z M 489.800781 0 L 659.601562 0 L 659.601562 480 L 489.898438 480 Z M 201 232 L 187.699219 236.398438 L 249.101562 290.398438 C 253.800781 304.101562 247.5 308.199219 243.5 315.398438 L 310.101562 307 L 308.5 374 L 322.398438 373.699219 L 319.300781 307.101562 L 386 315.101562 C 381.898438 306.398438 378.199219 301.800781 382 287.898438 L 443.300781 236.898438 L 432.601562 232.898438 C 423.800781 226.101562 436.398438 200.300781 438.199219 184 C 438.199219 184 402.5 196.300781 400.199219 189.800781 L 391 172.300781 L 358.398438 208.101562 C 354.898438 209 353.398438 207.601562 352.5 204.601562 L 367.5 129.800781 L 343.699219 143.199219 C 341.566406 144.066406 339.832031 143.332031 338.5 141 L 315.5 95 L 291.898438 142.800781 C 290.035156 144.464844 288.367188 144.699219 286.898438 143.5 L 264 130.800781 L 277.699219 204.898438 C 276.601562 207.898438 274 208.699219 271 207.101562 L 239.800781 171.800781 C 235.800781 178.300781 233 188.898438 227.601562 191.300781 C 222.199219 193.699219 204.101562 186.800781 192 184.300781 C 196.199219 199.101562 209 223.898438 201 232 "/>
</g>
</svg>
