<?xml version="1.0" encoding="UTF-8"?>
<svg xmlns="http://www.w3.org/2000/svg" xmlns:xlink="http://www.w3.org/1999/xlink" width="640px" height="480px" viewBox="0 0 640 480" version="1.1">
<g id="surface1">
<path style=" stroke:none;fill-rule:nonzero;fill:rgb(100%,60.000002%,20%);fill-opacity:1;" d="M 0 0 L 640 0 L 640 160 L 0 160 Z M 0 0 "/>
<path style=" stroke:none;fill-rule:nonzero;fill:rgb(100%,100%,100%);fill-opacity:1;" d="M 0 160 L 640 160 L 640 320 L 0 320 Z M 0 160 "/>
<path style=" stroke:none;fill-rule:nonzero;fill:rgb(7.058824%,53.333336%,2.745098%);fill-opacity:1;" d="M 0 320 L 640 320 L 640 480 L 0 480 Z M 0 320 "/>
<path style=" stroke:none;fill-rule:nonzero;fill:rgb(0%,0%,53.333336%);fill-opacity:1;" d="M 384 240 C 384 275.347656 355.347656 304 320 304 C 284.652344 304 256 275.347656 256 240 C 256 204.652344 284.652344 176 320 176 C 355.347656 176 384 204.652344 384 240 Z M 384 240 "/>
<path style=" stroke:none;fill-rule:nonzero;fill:rgb(100%,100%,100%);fill-opacity:1;" d="M 376 240 C 376 270.929688 350.929688 296 320 296 C 289.070312 296 264 270.929688 264 240 C 264 209.070312 289.070312 184 320 184 C 350.929688 184 376 209.070312 376 240 Z M 376 240 "/>
<path style=" stroke:none;fill-rule:nonzero;fill:rgb(0%,0%,53.333336%);fill-opacity:1;" d="M 331.199219 240 C 331.199219 246.1875 326.1875 251.199219 320 251.199219 C 313.8125 251.199219 308.800781 246.1875 308.800781 240 C 308.800781 233.8125 313.8125 228.800781 320 228.800781 C 326.1875 228.800781 331.199219 233.8125 331.199219 240 Z M 331.199219 240 "/>
<path style=" stroke:none;fill-rule:nonzero;fill:rgb(0%,0%,53.333336%);fill-opacity:1;" d="M 378.375 247.707031 C 378.167969 249.285156 376.722656 250.394531 375.144531 250.1875 C 373.566406 249.976562 372.457031 248.53125 372.664062 246.953125 C 372.871094 245.378906 374.320312 244.265625 375.894531 244.476562 C 377.472656 244.683594 378.582031 246.128906 378.375 247.707031 Z M 378.375 247.707031 "/>
<path style=" stroke:none;fill-rule:nonzero;fill:rgb(0%,0%,53.333336%);fill-opacity:1;" d="M 320 296 L 321.921875 262.398438 L 320 246.398438 L 318.078125 262.398438 Z M 320 296 "/>
<path style=" stroke:none;fill-rule:nonzero;fill:rgb(0%,0%,53.333336%);fill-opacity:1;" d="M 374.390625 262.550781 C 373.78125 264.023438 372.097656 264.71875 370.628906 264.109375 C 369.160156 263.503906 368.460938 261.816406 369.070312 260.347656 C 369.679688 258.878906 371.363281 258.179688 372.832031 258.789062 C 374.300781 259.398438 375 261.082031 374.390625 262.550781 Z M 374.390625 262.550781 "/>
<path style=" stroke:none;fill-rule:nonzero;fill:rgb(0%,0%,53.333336%);fill-opacity:1;" d="M 305.507812 294.09375 L 316.058594 262.132812 L 318.34375 246.183594 L 312.347656 261.140625 Z M 305.507812 294.09375 "/>
<path style=" stroke:none;fill-rule:nonzero;fill:rgb(0%,0%,53.333336%);fill-opacity:1;" d="M 366.703125 275.863281 C 365.734375 277.125 363.925781 277.363281 362.664062 276.394531 C 361.402344 275.425781 361.164062 273.617188 362.132812 272.355469 C 363.101562 271.09375 364.90625 270.855469 366.167969 271.824219 C 367.429688 272.792969 367.667969 274.597656 366.703125 275.863281 Z M 366.703125 275.863281 "/>
<path style=" stroke:none;fill-rule:nonzero;fill:rgb(0%,0%,53.333336%);fill-opacity:1;" d="M 292 288.496094 L 310.460938 260.359375 L 316.800781 245.542969 L 307.136719 258.4375 Z M 292 288.496094 "/>
<path style=" stroke:none;fill-rule:nonzero;fill:rgb(0%,0%,53.333336%);fill-opacity:1;" d="M 355.828125 286.726562 C 354.566406 287.695312 352.757812 287.457031 351.789062 286.195312 C 350.820312 284.933594 351.058594 283.125 352.320312 282.15625 C 353.582031 281.1875 355.390625 281.425781 356.359375 282.6875 C 357.328125 283.949219 357.089844 285.757812 355.828125 286.726562 Z M 355.828125 286.726562 "/>
<path style=" stroke:none;fill-rule:nonzero;fill:rgb(0%,0%,53.333336%);fill-opacity:1;" d="M 280.402344 279.597656 L 305.519531 257.195312 L 315.472656 244.527344 L 302.804688 254.480469 Z M 280.402344 279.597656 "/>
<path style=" stroke:none;fill-rule:nonzero;fill:rgb(0%,0%,53.333336%);fill-opacity:1;" d="M 342.515625 294.40625 C 341.042969 295.015625 339.359375 294.320312 338.75 292.847656 C 338.140625 291.378906 338.839844 289.695312 340.308594 289.085938 C 341.777344 288.476562 343.464844 289.175781 344.074219 290.644531 C 344.679688 292.113281 343.984375 293.800781 342.515625 294.40625 Z M 342.515625 294.40625 "/>
<path style=" stroke:none;fill-rule:nonzero;fill:rgb(0%,0%,53.333336%);fill-opacity:1;" d="M 271.503906 268 L 301.5625 252.863281 L 314.457031 243.199219 L 299.640625 249.539062 Z M 271.503906 268 "/>
<path style=" stroke:none;fill-rule:nonzero;fill:rgb(0%,0%,53.333336%);fill-opacity:1;" d="M 327.664062 298.378906 C 326.089844 298.589844 324.640625 297.476562 324.433594 295.902344 C 324.226562 294.324219 325.335938 292.878906 326.914062 292.671875 C 328.488281 292.460938 329.9375 293.574219 330.144531 295.148438 C 330.351562 296.726562 329.242188 298.171875 327.664062 298.378906 Z M 327.664062 298.378906 "/>
<path style=" stroke:none;fill-rule:nonzero;fill:rgb(0%,0%,53.333336%);fill-opacity:1;" d="M 265.90625 254.492188 L 298.859375 247.652344 L 313.816406 241.65625 L 297.867188 243.941406 Z M 265.90625 254.492188 "/>
<path style=" stroke:none;fill-rule:nonzero;fill:rgb(0%,0%,53.333336%);fill-opacity:1;" d="M 312.292969 298.375 C 310.714844 298.167969 309.605469 296.722656 309.8125 295.144531 C 310.023438 293.566406 311.46875 292.457031 313.046875 292.664062 C 314.621094 292.871094 315.734375 294.320312 315.523438 295.894531 C 315.316406 297.472656 313.871094 298.582031 312.292969 298.375 Z M 312.292969 298.375 "/>
<path style=" stroke:none;fill-rule:nonzero;fill:rgb(0%,0%,53.333336%);fill-opacity:1;" d="M 264 240 L 297.601562 241.921875 L 313.601562 240 L 297.601562 238.078125 Z M 264 240 "/>
<path style=" stroke:none;fill-rule:nonzero;fill:rgb(0%,0%,53.333336%);fill-opacity:1;" d="M 297.449219 294.390625 C 295.976562 293.78125 295.28125 292.097656 295.890625 290.628906 C 296.496094 289.160156 298.183594 288.460938 299.652344 289.070312 C 301.121094 289.679688 301.820312 291.363281 301.210938 292.832031 C 300.601562 294.300781 298.917969 295 297.449219 294.390625 Z M 297.449219 294.390625 "/>
<path style=" stroke:none;fill-rule:nonzero;fill:rgb(0%,0%,53.333336%);fill-opacity:1;" d="M 265.90625 225.507812 L 297.867188 236.058594 L 313.816406 238.34375 L 298.859375 232.347656 Z M 265.90625 225.507812 "/>
<path style=" stroke:none;fill-rule:nonzero;fill:rgb(0%,0%,53.333336%);fill-opacity:1;" d="M 284.136719 286.703125 C 282.875 285.734375 282.636719 283.925781 283.605469 282.664062 C 284.574219 281.402344 286.382812 281.164062 287.644531 282.132812 C 288.90625 283.101562 289.144531 284.90625 288.175781 286.167969 C 287.207031 287.429688 285.402344 287.667969 284.136719 286.703125 Z M 284.136719 286.703125 "/>
<path style=" stroke:none;fill-rule:nonzero;fill:rgb(0%,0%,53.333336%);fill-opacity:1;" d="M 271.503906 212 L 299.640625 230.460938 L 314.457031 236.800781 L 301.5625 227.136719 Z M 271.503906 212 "/>
<path style=" stroke:none;fill-rule:nonzero;fill:rgb(0%,0%,53.333336%);fill-opacity:1;" d="M 273.273438 275.828125 C 272.304688 274.566406 272.542969 272.757812 273.804688 271.789062 C 275.066406 270.820312 276.875 271.058594 277.84375 272.320312 C 278.8125 273.582031 278.574219 275.390625 277.3125 276.359375 C 276.050781 277.328125 274.242188 277.089844 273.273438 275.828125 Z M 273.273438 275.828125 "/>
<path style=" stroke:none;fill-rule:nonzero;fill:rgb(0%,0%,53.333336%);fill-opacity:1;" d="M 280.402344 200.402344 L 302.804688 225.519531 L 315.472656 235.472656 L 305.519531 222.804688 Z M 280.402344 200.402344 "/>
<path style=" stroke:none;fill-rule:nonzero;fill:rgb(0%,0%,53.333336%);fill-opacity:1;" d="M 265.59375 262.515625 C 264.984375 261.042969 265.679688 259.359375 267.152344 258.75 C 268.621094 258.140625 270.304688 258.839844 270.914062 260.308594 C 271.523438 261.777344 270.824219 263.464844 269.355469 264.074219 C 267.886719 264.679688 266.199219 263.984375 265.59375 262.515625 Z M 265.59375 262.515625 "/>
<path style=" stroke:none;fill-rule:nonzero;fill:rgb(0%,0%,53.333336%);fill-opacity:1;" d="M 292 191.503906 L 307.136719 221.5625 L 316.800781 234.457031 L 310.460938 219.640625 Z M 292 191.503906 "/>
<path style=" stroke:none;fill-rule:nonzero;fill:rgb(0%,0%,53.333336%);fill-opacity:1;" d="M 261.621094 247.664062 C 261.410156 246.089844 262.523438 244.640625 264.097656 244.433594 C 265.675781 244.226562 267.121094 245.335938 267.328125 246.914062 C 267.539062 248.488281 266.425781 249.9375 264.851562 250.144531 C 263.273438 250.351562 261.828125 249.242188 261.621094 247.664062 Z M 261.621094 247.664062 "/>
<path style=" stroke:none;fill-rule:nonzero;fill:rgb(0%,0%,53.333336%);fill-opacity:1;" d="M 305.507812 185.90625 L 312.347656 218.859375 L 318.34375 233.816406 L 316.058594 217.867188 Z M 305.507812 185.90625 "/>
<path style=" stroke:none;fill-rule:nonzero;fill:rgb(0%,0%,53.333336%);fill-opacity:1;" d="M 261.625 232.292969 C 261.832031 230.714844 263.277344 229.605469 264.855469 229.8125 C 266.433594 230.023438 267.542969 231.46875 267.335938 233.046875 C 267.128906 234.621094 265.679688 235.734375 264.105469 235.523438 C 262.527344 235.316406 261.417969 233.871094 261.625 232.292969 Z M 261.625 232.292969 "/>
<path style=" stroke:none;fill-rule:nonzero;fill:rgb(0%,0%,53.333336%);fill-opacity:1;" d="M 320 184 L 318.078125 217.601562 L 320 233.601562 L 321.921875 217.601562 Z M 320 184 "/>
<path style=" stroke:none;fill-rule:nonzero;fill:rgb(0%,0%,53.333336%);fill-opacity:1;" d="M 265.609375 217.449219 C 266.21875 215.976562 267.902344 215.28125 269.371094 215.890625 C 270.839844 216.496094 271.539062 218.183594 270.929688 219.652344 C 270.320312 221.121094 268.636719 221.820312 267.167969 221.210938 C 265.699219 220.601562 265 218.917969 265.609375 217.449219 Z M 265.609375 217.449219 "/>
<path style=" stroke:none;fill-rule:nonzero;fill:rgb(0%,0%,53.333336%);fill-opacity:1;" d="M 334.492188 185.90625 L 323.941406 217.867188 L 321.65625 233.816406 L 327.652344 218.859375 Z M 334.492188 185.90625 "/>
<path style=" stroke:none;fill-rule:nonzero;fill:rgb(0%,0%,53.333336%);fill-opacity:1;" d="M 273.296875 204.136719 C 274.265625 202.875 276.074219 202.636719 277.335938 203.605469 C 278.597656 204.574219 278.835938 206.382812 277.867188 207.644531 C 276.898438 208.90625 275.09375 209.144531 273.832031 208.175781 C 272.570312 207.207031 272.332031 205.402344 273.296875 204.136719 Z M 273.296875 204.136719 "/>
<path style=" stroke:none;fill-rule:nonzero;fill:rgb(0%,0%,53.333336%);fill-opacity:1;" d="M 348 191.503906 L 329.539062 219.640625 L 323.199219 234.457031 L 332.863281 221.5625 Z M 348 191.503906 "/>
<path style=" stroke:none;fill-rule:nonzero;fill:rgb(0%,0%,53.333336%);fill-opacity:1;" d="M 284.171875 193.273438 C 285.433594 192.304688 287.242188 192.542969 288.210938 193.804688 C 289.179688 195.066406 288.941406 196.875 287.679688 197.84375 C 286.417969 198.8125 284.609375 198.574219 283.640625 197.3125 C 282.671875 196.050781 282.910156 194.242188 284.171875 193.273438 Z M 284.171875 193.273438 "/>
<path style=" stroke:none;fill-rule:nonzero;fill:rgb(0%,0%,53.333336%);fill-opacity:1;" d="M 359.597656 200.402344 L 334.480469 222.804688 L 324.527344 235.472656 L 337.195312 225.519531 Z M 359.597656 200.402344 "/>
<path style=" stroke:none;fill-rule:nonzero;fill:rgb(0%,0%,53.333336%);fill-opacity:1;" d="M 297.484375 185.59375 C 298.957031 184.984375 300.640625 185.679688 301.25 187.152344 C 301.859375 188.621094 301.160156 190.304688 299.691406 190.914062 C 298.222656 191.523438 296.535156 190.824219 295.925781 189.355469 C 295.320312 187.886719 296.015625 186.199219 297.484375 185.59375 Z M 297.484375 185.59375 "/>
<path style=" stroke:none;fill-rule:nonzero;fill:rgb(0%,0%,53.333336%);fill-opacity:1;" d="M 368.496094 212 L 338.4375 227.136719 L 325.542969 236.800781 L 340.359375 230.460938 Z M 368.496094 212 "/>
<path style=" stroke:none;fill-rule:nonzero;fill:rgb(0%,0%,53.333336%);fill-opacity:1;" d="M 312.335938 181.621094 C 313.910156 181.410156 315.359375 182.523438 315.566406 184.097656 C 315.773438 185.675781 314.664062 187.121094 313.085938 187.328125 C 311.511719 187.539062 310.0625 186.425781 309.855469 184.851562 C 309.648438 183.273438 310.757812 181.828125 312.335938 181.621094 Z M 312.335938 181.621094 "/>
<path style=" stroke:none;fill-rule:nonzero;fill:rgb(0%,0%,53.333336%);fill-opacity:1;" d="M 374.09375 225.507812 L 341.140625 232.347656 L 326.183594 238.34375 L 342.132812 236.058594 Z M 374.09375 225.507812 "/>
<path style=" stroke:none;fill-rule:nonzero;fill:rgb(0%,0%,53.333336%);fill-opacity:1;" d="M 327.707031 181.625 C 329.285156 181.832031 330.394531 183.277344 330.1875 184.855469 C 329.976562 186.433594 328.53125 187.542969 326.953125 187.335938 C 325.378906 187.128906 324.265625 185.679688 324.476562 184.105469 C 324.683594 182.527344 326.128906 181.417969 327.707031 181.625 Z M 327.707031 181.625 "/>
<path style=" stroke:none;fill-rule:nonzero;fill:rgb(0%,0%,53.333336%);fill-opacity:1;" d="M 376 240 L 342.398438 238.078125 L 326.398438 240 L 342.398438 241.921875 Z M 376 240 "/>
<path style=" stroke:none;fill-rule:nonzero;fill:rgb(0%,0%,53.333336%);fill-opacity:1;" d="M 342.550781 185.609375 C 344.023438 186.21875 344.71875 187.902344 344.109375 189.371094 C 343.503906 190.839844 341.816406 191.539062 340.347656 190.929688 C 338.878906 190.320312 338.179688 188.636719 338.789062 187.167969 C 339.398438 185.699219 341.082031 185 342.550781 185.609375 Z M 342.550781 185.609375 "/>
<path style=" stroke:none;fill-rule:nonzero;fill:rgb(0%,0%,53.333336%);fill-opacity:1;" d="M 374.09375 254.492188 L 342.132812 243.941406 L 326.183594 241.65625 L 341.140625 247.652344 Z M 374.09375 254.492188 "/>
<path style=" stroke:none;fill-rule:nonzero;fill:rgb(0%,0%,53.333336%);fill-opacity:1;" d="M 355.863281 193.296875 C 357.125 194.265625 357.363281 196.074219 356.394531 197.335938 C 355.425781 198.597656 353.617188 198.835938 352.355469 197.867188 C 351.09375 196.898438 350.855469 195.09375 351.824219 193.832031 C 352.792969 192.570312 354.597656 192.332031 355.863281 193.296875 Z M 355.863281 193.296875 "/>
<path style=" stroke:none;fill-rule:nonzero;fill:rgb(0%,0%,53.333336%);fill-opacity:1;" d="M 368.496094 268 L 340.359375 249.539062 L 325.542969 243.199219 L 338.4375 252.863281 Z M 368.496094 268 "/>
<path style=" stroke:none;fill-rule:nonzero;fill:rgb(0%,0%,53.333336%);fill-opacity:1;" d="M 366.726562 204.171875 C 367.695312 205.433594 367.457031 207.242188 366.195312 208.210938 C 364.933594 209.179688 363.125 208.941406 362.15625 207.679688 C 361.1875 206.417969 361.425781 204.609375 362.6875 203.640625 C 363.949219 202.671875 365.757812 202.910156 366.726562 204.171875 Z M 366.726562 204.171875 "/>
<path style=" stroke:none;fill-rule:nonzero;fill:rgb(0%,0%,53.333336%);fill-opacity:1;" d="M 359.597656 279.597656 L 337.195312 254.480469 L 324.527344 244.527344 L 334.480469 257.195312 Z M 359.597656 279.597656 "/>
<path style=" stroke:none;fill-rule:nonzero;fill:rgb(0%,0%,53.333336%);fill-opacity:1;" d="M 374.40625 217.484375 C 375.015625 218.957031 374.320312 220.640625 372.847656 221.25 C 371.378906 221.859375 369.695312 221.160156 369.085938 219.691406 C 368.476562 218.222656 369.175781 216.535156 370.644531 215.925781 C 372.113281 215.320312 373.800781 216.015625 374.40625 217.484375 Z M 374.40625 217.484375 "/>
<path style=" stroke:none;fill-rule:nonzero;fill:rgb(0%,0%,53.333336%);fill-opacity:1;" d="M 348 288.496094 L 332.863281 258.4375 L 323.199219 245.542969 L 329.539062 260.359375 Z M 348 288.496094 "/>
<path style=" stroke:none;fill-rule:nonzero;fill:rgb(0%,0%,53.333336%);fill-opacity:1;" d="M 378.378906 232.335938 C 378.589844 233.910156 377.476562 235.359375 375.902344 235.566406 C 374.324219 235.773438 372.878906 234.664062 372.671875 233.085938 C 372.460938 231.511719 373.574219 230.0625 375.148438 229.855469 C 376.726562 229.648438 378.171875 230.757812 378.378906 232.335938 Z M 378.378906 232.335938 "/>
<path style=" stroke:none;fill-rule:nonzero;fill:rgb(0%,0%,53.333336%);fill-opacity:1;" d="M 334.492188 294.09375 L 327.652344 261.140625 L 321.65625 246.183594 L 323.941406 262.132812 Z M 334.492188 294.09375 "/>
</g>
</svg>
