<?xml version="1.0" encoding="UTF-8"?>
<svg xmlns="http://www.w3.org/2000/svg" xmlns:xlink="http://www.w3.org/1999/xlink" width="640px" height="480px" viewBox="0 0 640 480" version="1.1">
<g id="surface1">
<path style=" stroke:none;fill-rule:nonzero;fill:rgb(0%,67.058825%,22.352941%);fill-opacity:1;" d="M 0 240 L 640 240 L 640 480 L 0 480 Z M 0 240 "/>
<path style=" stroke:none;fill-rule:nonzero;fill:rgb(100%,100%,100%);fill-opacity:1;" d="M 0 0 L 640 0 L 640 240 L 0 240 Z M 0 0 "/>
<path style="fill-rule:nonzero;fill:rgb(82.352942%,6.27451%,20.392157%);fill-opacity:1;stroke-width:1.4;stroke-linecap:butt;stroke-linejoin:miter;stroke:rgb(0%,0%,0%);stroke-opacity:1;stroke-miterlimit:4;" d="M 419 70.800781 L 418.898438 70.800781 Z M 418.898438 70.800781 C 379.289062 92.117188 341.847656 117.234375 307.101562 145.800781 C 290.101562 160.699219 294.898438 172.5 294.199219 185.800781 C 294.800781 194.800781 292.300781 203.199219 286.800781 208.199219 L 249 215.800781 L 245.398438 205.398438 C 246.5 200 250.898438 197.398438 260.300781 200.699219 C 261 193.898438 255.398438 191.101562 249 188.699219 C 246.699219 186.898438 244 185.699219 244.300781 179.699219 C 243.300781 166.199219 264.898438 180.699219 265.101562 180.699219 C 265.300781 180.699219 264.300781 167 254.398438 164.300781 C 249 162.398438 246.699219 156.699219 248.800781 152.5 C 253.101562 143.800781 261.300781 153.101562 267.5 153.5 C 267.300781 147.800781 265.699219 143.800781 260.800781 139.300781 C 258.199219 137.601562 251.800781 136.398438 251.601562 133.699219 C 251.5 130.101562 257.601562 128.5 266.101562 129.5 C 264.300781 124.398438 258.601562 121.101562 250.800781 118.699219 L 246.199219 110.601562 C 244 106.601562 243 106.398438 248.101562 98.800781 C 252.601562 95.800781 258.699219 91.601562 263.300781 88.699219 L 258.300781 88.101562 C 258.898438 82.601562 259 80.699219 260.300781 71.601562 C 255.300781 78.300781 249.300781 77.101562 243.699219 79.800781 C 243.699219 79.800781 228.101562 82.601562 223 89.300781 L 183.601562 87.300781 C 175.199219 88.398438 168.101562 90.800781 166.699219 98.898438 C 147.601562 100.898438 127.601562 99.199219 113 117.398438 C 123 117 131.601562 114.601562 142.800781 116 C 142.800781 116 152.300781 116.199219 154.199219 126.300781 C 154.398438 126.699219 157.5 126.699219 157.5 126.699219 L 161.101562 129.5 L 162.5 125.699219 L 165.699219 127.898438 L 166.699219 123.699219 L 169.898438 125.898438 L 170.101562 120.898438 L 174.300781 123.898438 L 174.300781 117.199219 C 174.300781 117.199219 189.898438 117.199219 194.699219 127.199219 C 194.898438 127.300781 151 135.199219 108.601562 131.5 L 120.800781 125.5 C 105.398438 122.300781 90.800781 119.5 77.199219 108.800781 C 82.300781 128.199219 108.898438 150.898438 114.398438 150.800781 L 109.199219 141.398438 L 155.199219 143.398438 C 156.898438 148.5 156.199219 154.199219 160.199219 158.699219 C 160.199219 158.699219 157.699219 167.101562 163.398438 170.5 C 163.601562 170.898438 170.101562 153.5 170.101562 153.5 C 170.101562 153.5 172.101562 158.199219 174.101562 161.300781 C 177.101562 146.300781 193.5 143.800781 193.5 143.800781 L 196.898438 151.800781 C 191.800781 152.601562 185.398438 163 188.898438 168.800781 C 185.398438 168.800781 179.300781 178.898438 181.199219 184.398438 C 178.300781 187.300781 171.199219 191.101562 172.898438 203.199219 C 167.300781 204.398438 163.898438 214.699219 165.699219 225.699219 C 156.898438 233.800781 159.101562 248.699219 166.898438 254.800781 C 163.699219 257.800781 161.699219 259.898438 161.699219 263.5 C 158.601562 262.398438 155.699219 263.300781 154.398438 265.300781 C 150.601562 261.398438 145.199219 258.101562 141.398438 261.699219 C 140.398438 257.101562 134.398438 252.101562 127.898438 252.699219 C 128.582031 246.722656 124.734375 241.164062 118.898438 239.699219 C 118.898438 239.699219 117.398438 217.101562 110.601562 209.699219 C 109.898438 205.699219 111 202.898438 116.601562 199.5 C 122.300781 196.5 123.5 194.199219 123 185.601562 C 125.300781 179.898438 127 174.101562 120 170.199219 C 120.199219 177 118.199219 180.199219 115.398438 183.199219 C 112.101562 182.800781 111 186.601562 108.800781 188.199219 C 105.699219 184.101562 115.300781 177.601562 108.199219 168.300781 C 107.800781 167.898438 103.199219 156.300781 91.898438 156.5 C 97.199219 159.601562 99.5 164.898438 99.5 170.398438 C 95.304688 179.609375 94.664062 190.046875 97.699219 199.699219 C 93 192.699219 90.300781 179.300781 86.398438 177 C 83 176.300781 81.398438 168.300781 68.101562 170.601562 C 73.800781 172.101562 75.699219 176.5 77.101562 180.398438 C 73.699219 182.199219 75.398438 187 78 190.300781 C 77.5 198 82.101562 202.5 89 205.300781 L 85.601562 237 C 82.898438 236.699219 78.601562 247.398438 77 247.699219 C 74.300781 249.398438 69.601562 253.898438 75 255.199219 C 73.398438 260.898438 71.898438 264.398438 63.300781 265.601562 C 63.300781 265.601562 72.300781 271 79.898438 261.800781 C 87.898438 261.601562 85.300781 252 89.199219 247.800781 C 89.199219 247.5 91.5 246.101562 94.699219 237.601562 C 96.101562 245.199219 103.898438 268.398438 121.398438 279.898438 C 136.699219 296.300781 149.398438 311.800781 149.199219 333.601562 C 155.074219 327.140625 159.296875 319.351562 161.5 310.898438 C 171.476562 307.90625 181.902344 306.6875 192.300781 307.300781 C 190.5 311.199219 188.398438 314.898438 191 317.300781 C 183.601562 319.898438 182 325.300781 185 330.601562 C 177.199219 335.898438 176.699219 339.300781 176.601562 348.101562 C 162.101562 366.601562 153.199219 366 138.898438 361.101562 C 134.300781 358.398438 126.898438 354.5 123.601562 356.601562 C 117.5 352.398438 108.601562 351.800781 107.101562 361.199219 C 111.800781 357.300781 114.5 358.101562 118.199219 361.800781 C 117.5 363.699219 116.898438 365.5 119.601562 366.601562 L 116 370.601562 C 109.398438 369.601562 100.398438 369.601562 98.101562 379.300781 C 101.5 376.398438 109.101562 375.800781 115.101562 378.5 L 118.601562 379.699219 L 119 384.300781 C 119 384.300781 110 382.898438 107.601562 397.601562 C 116 388.601562 122 390.898438 122 390.898438 C 125.300781 395.699219 137.300781 395 146 387.101562 C 158.101562 380.300781 161.699219 390.101562 169.5 383.699219 C 176 378.898438 183.699219 382.101562 189 387.699219 C 195.101562 390 201.5 391.898438 206.5 387.699219 C 206.5 387.699219 212.699219 383.800781 218.800781 390.101562 C 218.800781 383.101562 213.800781 379.199219 207 379.101562 L 205 377.101562 C 198.5 375.699219 191.300781 376.300781 185.601562 373.101562 C 187.8125 363.003906 192.679688 353.683594 199.699219 346.101562 C 209 336.101562 215.898438 331.5 227.699219 316.199219 C 227.199219 324.898438 233.800781 334.5 237.300781 343.199219 C 237.300781 343.199219 244.300781 332.101562 245.300781 322.898438 C 245.601562 322.898438 254.199219 318.5 257.800781 314.601562 C 265.601562 319.5 278.199219 310.800781 286.398438 303.601562 C 291.398438 305.601562 295.300781 305.398438 301.101562 303.601562 C 296.398438 313.199219 303.800781 322.101562 315.601562 325.800781 C 316.601562 334.199219 325.199219 336 338.101562 336 C 338.699219 341 346.398438 341.699219 346.398438 341.699219 C 341.398438 343.898438 339 346.199219 339.101562 351.300781 C 334.101562 351.300781 330.398438 352.601562 329.101562 358.300781 C 322.199219 358.5 315.199219 359 309.300781 362.300781 C 303 361.398438 295.300781 358.800781 290.398438 353.699219 C 287.898438 351.601562 287.199219 348.5 282.800781 347.300781 C 280 344 276.601562 344.699219 275.5 347.898438 C 272.601562 345.601562 261.699219 344.601562 259.800781 354.898438 C 265 351.199219 269.5 349.800781 272.800781 354.398438 C 271 357.5 277 359.398438 282.199219 360.601562 C 285.898438 360.800781 292.398438 364.199219 294.398438 369.800781 C 288.722656 371.445312 282.609375 370.492188 277.699219 367.199219 C 274.007812 364.121094 268.742188 363.796875 264.699219 366.398438 C 260.300781 363.601562 250 368.898438 249.601562 377.300781 C 253.898438 373.300781 257.898438 371.300781 261.898438 373.898438 C 259.898438 374.300781 260.601562 374.5 260.898438 375.699219 L 270.898438 381.5 C 265.898438 382.800781 261.300781 384.800781 263.5 394 C 263.5 394 267.5 386 276.5 389 C 276.699219 388.699219 277.800781 391.800781 280.398438 389.699219 C 284.300781 385.300781 293.199219 383.300781 301.101562 382.5 C 307.398438 381.800781 313.699219 379.898438 319.101562 383.5 C 324.101562 381 329.5 379.300781 335.101562 383.300781 C 341.699219 385.300781 346.5 393.101562 354.800781 389.601562 C 359 386.601562 364.101562 386.601562 369.300781 392.398438 C 369.300781 385 363.800781 382.5 356 380.898438 L 350.601562 377.699219 C 345.601562 376.898438 340.601562 377.800781 335.5 375.398438 C 359.667969 369.636719 380.480469 354.34375 393.199219 333 L 405.699219 337.398438 C 408.699219 337.601562 408.898438 338.601562 415 340.398438 C 415.199219 331.5 411.300781 322.300781 395.199219 321.398438 L 374.199219 313.398438 C 369.601562 308.601562 367.601562 298.5 373.300781 292.601562 C 378.898438 287.601562 379.898438 288.199219 383.601562 282.101562 C 388.101562 281.699219 392.300781 286.300781 396.398438 286.300781 C 398.398438 292.199219 409.800781 297.300781 417 295.601562 C 421.5 299.601562 430 301.800781 439.5 298.601562 C 445.015625 303.828125 453.21875 305.027344 460 301.601562 C 462.199219 303.800781 466.800781 305.601562 472 304.398438 C 472.5 304.398438 474.800781 310.199219 480.5 312.300781 C 478 314.699219 479.5 325.300781 482.199219 329.199219 C 480.265625 333.15625 479.945312 337.710938 481.300781 341.898438 C 475.5 345.601562 474.300781 348.398438 476.898438 354.699219 C 469.300781 367 460.199219 368.398438 451.601562 364.699219 L 442.300781 358.699219 L 432.5 349.101562 C 430.800781 347.5 427.300781 347.101562 426.601562 350.5 C 426.601562 350.5 414 347.699219 412.898438 358.398438 C 418.199219 353.300781 425.601562 357.800781 425.601562 358 C 425.601562 358.199219 423.800781 359.398438 425.199219 361.398438 C 425.5 361.101562 434.5 364.699219 442.398438 368.101562 C 446.699219 369.800781 447.699219 370.300781 449.601562 371.300781 L 442.398438 368.101562 C 438.929688 366.503906 435.207031 365.523438 431.398438 365.199219 C 427 364.800781 422.199219 364.199219 420 367.601562 C 415.199219 369.601562 407.601562 371.300781 408 380.300781 C 411.199219 374.898438 415.699219 375.199219 421.398438 375.699219 L 421 376.898438 C 427.199219 379.699219 426 376.101562 431.800781 375.601562 C 437.007812 375.519531 442.1875 376.367188 447.101562 378.101562 C 442.601562 379.398438 436.398438 378.800781 433.5 382.101562 C 432.898438 383.101562 431 382.699219 431.898438 385.300781 C 431.898438 385.300781 422.898438 385.101562 420.601562 397.300781 C 429.601562 391.601562 436.5 391.800781 436.601562 391.800781 L 439.5 392.398438 L 450.5 385.101562 C 450.800781 385.101562 461.101562 380.5 465.800781 385.699219 C 470 387.699219 474.398438 387.898438 478.800781 385.300781 C 487.199219 381.601562 495.101562 381.300781 502.800781 386.5 L 509.898438 390.699219 L 512.898438 388.699219 C 512.898438 388.699219 520.898438 386.5 526.699219 393.601562 C 524.300781 381.300781 515.5 380.898438 515.5 380.898438 L 513.5 379.101562 L 501.101562 374.199219 C 499.199219 369.699219 494.699219 366.199219 499.199219 360.800781 C 503.898438 337.699219 509.398438 320.398438 500.398438 297 C 508.800781 300.601562 515.101562 311.800781 525.601562 307.898438 C 525.601562 298.5 491 280.601562 464.601562 266.300781 C 508 264 560 232.101562 540 191.5 L 549.398438 162.101562 C 553.898438 171.101562 562.898438 177.898438 571 180.800781 C 564.300781 168.101562 560.5 129.199219 564.300781 102.398438 C 546.609375 123.636719 527.535156 143.679688 507.199219 162.398438 C 517.199219 164.800781 526.101562 163.101562 535.800781 161.898438 L 527.601562 178.898438 C 501 163.199219 469.800781 174.898438 469.601562 195.699219 C 470.5 219.898438 500.398438 223.398438 517.699219 214.898438 C 514.300781 237 463.5 228.898438 463.5 228.898438 C 445.5 222.699219 428.398438 223.699219 409.5 223.898438 C 413.398438 211.800781 435.199219 201 451.898438 205.800781 C 428.601562 179.601562 455.199219 147.101562 487.300781 137.199219 C 452.300781 125.601562 482.398438 98.898438 508.601562 79.800781 C 508.601562 79.800781 433.300781 111.5 426.398438 111.398438 C 405 109.800781 410.800781 84.398438 419 70.800781 Z M 182.5 101.199219 C 184.367188 101.199219 186.199219 101.398438 188 101.800781 C 191.398438 102.699219 195.5 103.101562 195.5 104.199219 C 193.898438 106.800781 190 109.898438 186.199219 109.800781 C 182.398438 109.699219 180.199219 107.300781 179 101.601562 C 179.535156 101.332031 180.699219 101.199219 182.5 101.199219 Z M 499.5 190.601562 C 504.5 190.601562 510.398438 192.601562 516.101562 198.800781 C 513.398438 206.800781 489.300781 210.800781 487.699219 199 C 487.199219 195.398438 492.300781 190.699219 499.5 190.601562 Z M 499.5 190.601562 "/>
<path style="fill:none;stroke-width:1.4;stroke-linecap:butt;stroke-linejoin:round;stroke:rgb(0%,0%,0%);stroke-opacity:1;stroke-miterlimit:4;" d="M 207.398438 171.199219 L 211.101562 176.5 M 210.898438 176.601562 C 210.898438 176.601562 210.898438 183.800781 212.398438 183.898438 M 209.101562 187.800781 L 212.898438 194.101562 M 202.398438 195.699219 C 202.601562 195.699219 207.101562 200.898438 207.101562 200.898438 M 211 196.898438 C 211 197.101562 215.199219 205 215.5 205 M 205.5 202.398438 C 205.5 202.398438 206.898438 212 208.199219 211.699219 M 199.199219 220 L 203.398438 226.5 M 207.101562 213.199219 C 207.101562 213.199219 209.398438 222.300781 211.199219 221.5 M 213.101562 207.699219 C 213.199219 207.898438 217.398438 213.800781 218.5 213 M 217.5 215.300781 L 221.5 223.300781 M 210.898438 221.5 L 214.199219 230.898438 M 203.199219 226.300781 C 203.199219 226.300781 206.199219 236.398438 208.898438 234.800781 M 202.101562 239.800781 C 202.101562 239.800781 202.300781 245.101562 204.898438 245.398438 M 206.699219 237.101562 C 206.699219 237.300781 209.398438 240.898438 209.398438 240.898438 M 214.398438 230.800781 L 216.5 234.300781 M 221.398438 224.300781 L 224.699219 228.398438 M 206 176.699219 C 206.101562 181.199219 213.199219 175.101562 216 171.300781 M 203 192.300781 C 203 192.300781 210.699219 186.800781 216.699219 178.5 M 200.398438 205.398438 C 205.898438 203.898438 216 191.699219 218 185.199219 M 199.300781 217.5 C 200.800781 218.199219 219.601562 204.5 220.101562 194.601562 M 198.800781 228 C 198.800781 227.898438 216 223.601562 223.101562 204.699219 M 198 242.300781 C 198 242.300781 225.5 225.800781 227 213.699219 M 412.398438 270 C 412.398438 270 410.601562 284.199219 396.398438 286.398438 M 416.898438 295.398438 C 417 295.199219 430.5 280.398438 427 275.898438 M 448.101562 281.101562 C 448.101562 281.101562 447.898438 291.398438 439.5 298.5 M 464.898438 284.101562 C 464.898438 284.101562 465.199219 296.5 459.898438 301.5 M 480.300781 291.5 C 480.300781 291.5 474.300781 303.199219 472.199219 304.398438 M 480.101562 312.199219 C 480.101562 312.199219 487.898438 314.199219 490.398438 309 M 482.101562 329.101562 C 482.101562 329.101562 489.300781 330.398438 492.699219 323.5 M 481.300781 342.199219 C 481.300781 342.199219 487.199219 347.199219 491.199219 340.601562 M 397.199219 246.199219 C 397.199219 246.199219 396.5 271.5 432 276.601562 C 471.699219 287.601562 490.5 281.800781 492.800781 326.300781 C 491.300781 343.300781 489.199219 362.300781 476.800781 355 M 359.398438 269.5 C 359.398438 269.5 365.101562 279.601562 371.898438 278.898438 C 380.898438 276.300781 384.199219 281.800781 384.199219 281.800781 M 335.199219 279.601562 C 335.199219 279.601562 350.199219 286.898438 362.898438 275.101562 M 336.898438 269.101562 C 338.199219 286.601562 316.800781 296.601562 308.300781 294.898438 M 337.898438 335.898438 C 338 335.898438 349.5 329.101562 347.199219 324.300781 M 315.101562 325.800781 C 315.398438 325.398438 334.398438 323.601562 337.898438 316.800781 M 306.300781 297.800781 C 306.300781 297.800781 333.199219 298 335 302.898438 M 342 281.898438 C 342 281.898438 315.800781 326.800781 364.199219 326.800781 M 314.199219 281.300781 C 314.199219 281.300781 308.601562 298 300.601562 303.699219 M 286.398438 275.5 C 286.398438 275.5 296.101562 294.300781 286.398438 303.601562 M 261 280.800781 C 261.101562 281.101562 264.101562 307.5 257.5 315 M 248.300781 281.601562 C 248.300781 281.601562 249.300781 298.398438 244.300781 304.398438 C 239.300781 310.398438 245.5 322.800781 245.5 322.800781 M 185 330.800781 C 185 330.800781 188.601562 337.101562 193.5 334.898438 M 191 317.101562 C 191 317.101562 199 320.601562 201.699219 319.300781 M 199.699219 288.898438 C 199.699219 288.898438 187.898438 292.199219 192.398438 306.199219 C 199.199219 311.699219 205.800781 310.800781 205.800781 310.800781 M 176.398438 348.199219 C 176.300781 348.199219 177.800781 359.199219 185.398438 350.898438 C 190.699219 339.699219 207.398438 308.300781 211.300781 297.5 M 219.101562 292.398438 C 219.101562 292.398438 211 286.101562 211.300781 294.898438 C 211.101562 300.398438 213.800781 301.699219 213.800781 301.699219 C 214.101562 305.699219 217.601562 311.300781 220.398438 306.199219 C 221.601562 301.199219 219.601562 299 219.601562 299 M 224.300781 290 C 217 289.601562 213 305.699219 227.101562 295.601562 M 231.898438 284.601562 C 231.898438 284.601562 230.101562 287.101562 227.199219 284.398438 C 225.699219 281.800781 220.398438 296.398438 229.699219 296.898438 C 231.398438 292.601562 236.5 291.398438 236.5 291.398438 M 240.898438 277.601562 C 240.898438 277.601562 236.699219 279.601562 235.199219 279.300781 C 230.199219 280.398438 231.199219 292.101562 237.5 291.398438 C 239.699219 288.898438 242 285.398438 242 285.398438 M 201.699219 262.398438 C 201.5 262.398438 185.199219 288.101562 210.800781 294.898438 M 408.800781 223.898438 C 408.800781 223.898438 398.800781 232.300781 408.101562 245.898438 C 377.101562 245.398438 360.601562 259.699219 359.300781 269.300781 C 319.898438 266.5 327.101562 278.101562 314.300781 281.898438 C 297.199219 267.601562 272.101562 275.601562 273.699219 289.898438 C 262.300781 273.800781 244.699219 281.601562 242.5 285.601562 C 240.300781 289.601562 241.199219 265.800781 241.199219 265.800781 C 241.199219 265.800781 229.699219 271 221.800781 280.398438 L 221.800781 260.5 C 212.199219 262.5 202.898438 262.5 193 262.300781 M 167.101562 255 C 167.101562 255 181.398438 263 199.101562 252.199219 M 166 226.300781 C 166 226.300781 177 236.300781 198 233.101562 M 173 203.398438 C 173 203.398438 175.398438 211.5 199.300781 212 M 181 184.601562 C 181 184.601562 190 195.601562 202.199219 193.898438 M 188.699219 168.898438 C 188.699219 168.898438 192.199219 174.898438 205.5 175.898438 M 196.5 151.398438 C 196.5 151.398438 203.5 159 211.5 157.699219 M 238 89.300781 C 238 89.300781 241.101562 86.300781 246.300781 87.800781 M 235.800781 105.601562 C 235.800781 105.601562 226.199219 105.300781 226.800781 101.601562 C 227.601562 97.199219 237 94.101562 237 94.101562 C 237 94.101562 249.5 86.101562 251.398438 83.300781 M 194.800781 127.300781 L 207 150.601562 L 212.800781 141.800781 L 215.800781 147.800781 L 220.800781 139.101562 L 229.398438 144.601562 L 226.199219 133.898438 L 233.398438 133.398438 C 233.398438 133.398438 231.398438 128.300781 225 127.199219 C 226.699219 125.898438 232.699219 121.898438 232.699219 121.898438 C 232.699219 121.898438 229.300781 117.898438 223.898438 117.800781 C 225.699219 115.898438 228.101562 111.300781 227.898438 111.300781 L 222.601562 110.101562 C 222.601562 110.101562 234.800781 114.101562 244.199219 108.5 M 221 89.699219 C 221.101562 89.800781 220.300781 94.5 217.699219 97.199219 M 174 102.5 C 174 102.5 181.5 100.5 187.101562 101.601562 C 192.699219 102.699219 200.199219 104.800781 200.199219 104.800781 C 200.199219 104.800781 209.199219 103.601562 212.101562 101.5 M 155.300781 107.5 C 155.300781 107.5 154.300781 111.101562 153.898438 113.5 C 153.898438 115.199219 148.398438 117.5 148.398438 117.5 M 158.699219 100.101562 C 158.699219 100.101562 163.5 106.101562 163.699219 109.601562 C 163.800781 113 160.101562 115.601562 160.101562 115.601562 M 109 141 L 104 133 L 108.5 131.398438 M 199 252.398438 C 195 247.199219 202 168.199219 216.699219 147.601562 C 211.601562 184.800781 228.699219 222.800781 233 222.601562 M 154 125.601562 C 154 125.601562 160.800781 128.101562 174.699219 117 M 193.601562 143.800781 L 203.601562 143.898438 M 503.898438 81.898438 C 503.898438 81.898438 337.199219 159.699219 334.800781 163.898438 C 362.898438 155.300781 482.300781 135.398438 485.199219 137.101562 C 478.199219 138.800781 333.300781 172.101562 326.5 180.101562 C 362.699219 178.898438 438.398438 191.699219 450.300781 204.101562 C 424.5 198.300781 347.601562 187 324 192 C 341.199219 196.101562 407.199219 238.800781 407.199219 245.601562 C 397.199219 236.101562 317.898438 203.398438 314.800781 206.601562 C 333 217.5 358.699219 258 358.699219 267.898438 C 353.398438 259.5 307.5 210.199219 304.800781 213.398438 C 309.699219 220.101562 319.300781 278.300781 314.398438 281 C 314.398438 274 296.601562 223 295.101562 221.601562 C 291.5 222.601562 268.800781 283.601562 273.300781 289.398438 C 270.300781 269 273.800781 226.398438 279.300781 228.101562 C 269.300781 229.601562 237.601562 271.5 241 278.101562 C 242 267.601562 243.398438 260.699219 261.398438 226 C 241.398438 227.199219 200.199219 253.101562 193.199219 262.398438 C 198.800781 245.898438 233.699219 218 249 216 M 321 155.300781 C 338.601562 145.5 393 125.601562 429.398438 110.898438 M 286.800781 207.898438 C 286.800781 207.898438 298.800781 207.699219 310.800781 175.101562 C 322.601562 130.5 416.5 80.800781 418.398438 71.5 M 128 252.800781 C 128 252.800781 125.199219 258.800781 121.800781 260.398438 M 141.5 261.800781 C 141.5 261.800781 137.800781 269 136.898438 272.398438 M 154.398438 265.398438 C 154.398438 265.398438 157.398438 275.199219 154.898438 279.800781 M 118.5 239.699219 C 109.101562 245 123.898438 278.699219 168.601562 281.898438 M 161.398438 263.699219 C 161.398438 263.699219 160.199219 269.699219 168.601562 281.699219 C 166.199219 295.101562 178.800781 305.601562 183.800781 307.300781 M 157.800781 143.101562 L 159.199219 139.5 L 160.699219 143.5 L 163.199219 143.398438 L 164.800781 139.398438 L 166.199219 143.398438 L 168.601562 143.398438 L 170.101562 139 L 172.398438 143.199219 L 174.398438 143.199219 L 175.898438 138.199219 L 178.898438 141.800781 L 180.101562 141.398438 L 181.101562 136.199219 L 184.199219 139.800781 L 185.199219 139.300781 L 186.601562 134.300781 L 189.101562 138 L 190.398438 137.601562 L 191.601562 133.300781 L 194 137.300781 M 155 143.5 L 173.800781 143.199219 C 179.800781 143.199219 189.601562 134.898438 200.5 137.5 M 115.601562 183.5 C 115.601562 183.5 118.699219 190.300781 123 186.5 M 108.398438 188 C 108.398438 188 102.398438 204.199219 109.601562 208 M 99.800781 170.199219 C 99.800781 170.199219 99.800781 174 107.800781 168.199219 M 75.300781 254.898438 C 75.300781 254.898438 81.601562 256.898438 80.601562 261.601562 M 77.601562 180.800781 C 77.601562 180.800781 81.601562 182.699219 85.398438 176.800781 M 119.601562 366.5 C 125.699219 366.101562 127.101562 368.898438 132.601562 368.898438 C 139.199219 369.101562 145.5 366.5 153.601562 364.199219 M 206.699219 379.199219 C 206.5 379.199219 203.699219 385 206.199219 387.898438 M 118.699219 379.699219 C 118.699219 379.699219 128.5 371.699219 133.699219 376.601562 C 138.601562 378.300781 141.300781 378 141.300781 378 M 123.800781 356.699219 C 123.800781 356.699219 126.199219 362.898438 118.199219 362 M 115.800781 371 C 115.800781 371 120.898438 374.199219 115.101562 378.5 M 118.898438 384.300781 C 118.898438 384.300781 125.898438 385.300781 121.800781 391 M 346 341.601562 C 346 341.601562 365 343.601562 366 345 C 368.199219 342.699219 385.199219 328.800781 364.300781 326.898438 C 362.316406 335.433594 354.757812 341.503906 346 341.601562 Z M 339.199219 351.101562 C 346.300781 356.800781 343.398438 360.199219 365.800781 345.199219 M 329 358.199219 C 329 358.199219 339.5 369.601562 347.199219 355.800781 M 308.898438 362.300781 L 294.601562 369.800781 M 269 380.300781 C 269 380.300781 277.699219 372.898438 281.699219 376.800781 C 285.699219 380.699219 303 373.398438 303 373.398438 M 275.5 348 C 275.5 348 278.5 354 272.699219 354.699219 M 264.199219 366.601562 C 264.199219 366.601562 267.199219 372.199219 261.398438 373.601562 M 270.898438 381.699219 C 270.898438 381.699219 279.898438 382.199219 276.699219 389 M 355.101562 380.5 C 355.101562 380.5 350.101562 384.699219 353.800781 389.5 M 426.800781 350.5 C 426.800781 350.5 432.5 353.300781 425.699219 358 M 420 367.898438 C 420 367.898438 424.300781 372.398438 421.398438 376.101562 M 432 385.101562 C 432 385.101562 437.898438 386.800781 437.199219 391.699219 M 515 380.699219 C 515 380.699219 510 384.398438 512.699219 389.101562 M 427 236.300781 C 438.800781 234.898438 455.800781 261.300781 464.5 266.398438 M 516.398438 199 C 516.398438 199 522.398438 204.300781 517.101562 217 M 527.5 178.800781 C 529.199219 180.101562 535.601562 183.601562 539.898438 191.601562 M 544 139.398438 L 535.699219 161.898438 M 553.300781 138.300781 C 553.300781 138.300781 551.699219 158.300781 549.300781 162.300781 M 516 198.800781 C 513.300781 206.800781 489.199219 210.800781 487.601562 199 C 486.699219 193 501.800781 183.699219 516 198.800781 Z M 516 198.800781 "/>
<path style="fill-rule:nonzero;fill:rgb(0%,0%,0%);fill-opacity:1;stroke-width:1.4;stroke-linecap:butt;stroke-linejoin:round;stroke:rgb(0%,0%,0%);stroke-opacity:1;stroke-miterlimit:4;" d="M 182.300781 101.300781 L 191.601562 103 C 191.601562 103 185.101562 111.800781 182.300781 101.300781 Z M 182.300781 101.300781 "/>
</g>
</svg>
